<?xml version="1.0" encoding="utf-8"?>
<!-- Generator: Adobe Illustrator 25.0.0, SVG Export Plug-In . SVG Version: 6.00 Build 0)  -->
<svg version="1.1" id="Layer_1" xmlns="http://www.w3.org/2000/svg" xmlns:xlink="http://www.w3.org/1999/xlink" x="0px" y="0px"
	 viewBox="0 0 16 16" style="enable-background:new 0 0 16 16;" xml:space="preserve">
<style type="text/css">
	.st0{fill:#90A93A;}
</style>
<g>
	<path class="st0" d="M6.8,4.7c0,0.2,0,0.5,0,0.7c0,0.1,0,0.2-0.1,0.2C5.6,6.2,4.5,6.8,3.4,7.4C2.9,7.6,2.5,7.9,2.1,8.1
		c0,0-0.1,0-0.1,0.1c0,0,0.1,0.1,0.1,0.1c0.7,0.4,1.5,0.8,2.2,1.2c0.8,0.4,1.6,0.9,2.4,1.3c0.1,0.1,0.1,0.1,0.1,0.2c0,0.5,0,1,0,1.4
		c0,0.1,0,0.2-0.2,0.1C5.1,11.8,3.5,11,2,10.1C1.4,9.8,0.8,9.6,0.3,9.3C0.2,9.2,0.1,9.1,0.1,9c0-0.5,0-1,0-1.5c0-0.1,0-0.2,0.2-0.3
		c1.5-0.8,3.1-1.6,4.6-2.4C5.4,4.5,6,4.2,6.6,3.9c0.1-0.1,0.2,0,0.2,0.1C6.8,4.2,6.8,4.4,6.8,4.7z"/>
	<path class="st0" d="M9,12.3c-0.3,0-0.6,0-0.8,0c-0.1,0-0.1,0-0.1,0c0-0.1,0-0.1,0.1-0.2c0.6-0.8,1.1-1.6,1.7-2.4
		C11,8,12.3,6.2,13.6,4.4c0.1-0.2,0.2-0.2,0.4-0.2c0.5,0,1,0,1.5,0c0.1,0,0.1,0,0.2,0c0,0.1,0,0.1-0.1,0.1c-1.9,2.6-3.8,5.2-5.6,7.9
		c-0.1,0.1-0.1,0.1-0.2,0.1C9.5,12.3,9.2,12.3,9,12.3z"/>
	<path class="st0" d="M11.3,6c0,0.9-0.7,1.6-1.7,1.6c-1,0-1.7-0.7-1.7-1.6c0-0.9,0.8-1.6,1.7-1.6C10.6,4.4,11.3,5.1,11.3,6z M9.1,6
		c0,0.3,0.1,0.5,0.3,0.5c0.2,0.1,0.4,0,0.5-0.1c0.2-0.2,0.2-0.7-0.1-0.9C9.7,5.4,9.4,5.4,9.3,5.6C9.2,5.7,9.1,5.8,9.1,6z"/>
	<path class="st0" d="M14.2,12.4c-1,0-1.7-0.6-1.7-1.6c0-0.6,0.2-1.1,0.8-1.4C14,8.9,15,9.1,15.6,9.8c0.7,1,0.2,2.3-1,2.6
		C14.4,12.4,14.3,12.4,14.2,12.4z M13.7,10.8C13.7,10.8,13.7,10.8,13.7,10.8c0,0.3,0.2,0.6,0.5,0.6c0.3,0,0.5-0.3,0.5-0.6
		c0-0.3-0.2-0.6-0.5-0.5c-0.1,0-0.1,0-0.2,0C13.8,10.3,13.7,10.5,13.7,10.8z"/>
</g>
</svg>
