<?xml version="1.0" encoding="utf-8"?>
<!-- Generator: Adobe Illustrator 25.0.0, SVG Export Plug-In . SVG Version: 6.00 Build 0)  -->
<svg version="1.1" id="Layer_1" xmlns="http://www.w3.org/2000/svg" xmlns:xlink="http://www.w3.org/1999/xlink" x="0px" y="0px"
	 viewBox="0 0 16 16" style="enable-background:new 0 0 16 16;" xml:space="preserve">
<style type="text/css">
	.st0{clip-path:url(#SVGID_2_);}
	.st1{fill:#424242;}
	.st2{fill:#62DAFB;}
</style>
<g>
	<defs>
		<rect id="SVGID_1_" y="3.7" width="16" height="8.8"/>
	</defs>
	<clipPath id="SVGID_2_">
		<use xlink:href="#SVGID_1_"  style="overflow:visible;"/>
	</clipPath>
	<g class="st0">
		<path class="st1" d="M4.9,9.4c0.8,0,1.5-0.6,1.5-1.5S5.7,6.5,4.9,6.5S3.4,7.2,3.4,8S4.1,9.4,4.9,9.4z M1.5,12.3
			c0.8,0,1.5-0.6,1.5-1.5c0-0.8-0.6-1.5-1.5-1.5C0.6,9.4,0,10.1,0,10.9C0,11.7,0.6,12.3,1.5,12.3z M14.5,12.3c0.8,0,1.5-0.6,1.5-1.5
			c0-0.8-0.6-1.5-1.5-1.5c-0.8,0-1.5,0.6-1.5,1.5C13.1,11.7,13.7,12.3,14.5,12.3z"/>
		<path class="st2" d="M9.8,8c0-0.5-0.1-0.9-0.4-1.2c-0.5-0.4-1-0.1-1.7-0.4C7,6.4,6.6,5.8,6.6,5.1c0-0.8,0.7-1.5,1.5-1.5
			c0.6,0,1.1,0.4,1.4,0.9C9.7,5.2,9.5,5.9,10,6.2c0.5,0.4,1.2,0.1,2,0.5c0.3,0.1,0.5,0.3,0.6,0.5c0.2,0.2,0.2,0.5,0.2,0.8
			c0,0.7-0.5,1.3-1.1,1.4c-0.7,0.2-1.2,0-1.7,0.4c-0.5,0.4-0.2,1.1-0.7,1.8C9.1,12,8.6,12.4,8,12.4c-0.8,0-1.5-0.7-1.5-1.5
			c0-0.6,0.3-1.1,0.9-1.3c0.8-0.4,1.5-0.1,2-0.5C9.7,8.9,9.8,8.5,9.8,8z"/>
	</g>
</g>
</svg>
